<svg width="30.000000" height="35.000000" viewBox="0 0 30 35" fill="none" xmlns="http://www.w3.org/2000/svg" xmlns:xlink="http://www.w3.org/1999/xlink">
	<desc>
			Created with Pixso.
	</desc>
	<path d="M25.0525 18.5918C24.9948 14.1626 28.8491 12.03 29.0216 11.9207C28.2668 10.8831 27.2632 10.0299 26.0932 9.43103C24.9232 8.83228 23.6201 8.50476 22.2908 8.47571C19.4143 8.20227 16.711 10.0615 15.215 10.0615C13.7768 10.0615 11.5332 8.47571 9.11714 8.5304C7.56222 8.58228 6.04742 9.01184 4.71786 9.77783C3.3883 10.5438 2.28853 11.6206 1.5239 12.9049C-1.69755 18.2638 0.716225 26.2473 3.88229 30.5671C5.43533 32.6997 7.27623 35.1057 9.69231 34.9965C12.0507 34.8871 12.9138 33.5747 15.7325 33.5747C18.5513 33.5747 19.3567 34.9965 21.8304 34.9418C24.3619 34.8871 25.9149 32.7544 27.468 30.6218C28.5866 29.1018 29.4414 27.4219 30 25.6458C28.5325 25.0647 27.2794 24.0846 26.3989 22.8292C25.5184 21.5737 25.0499 20.0994 25.0525 18.5918ZM20.3928 5.57751C21.7635 4.02136 22.4441 2.02209 22.2914 0C20.1985 0.178711 18.2603 1.11963 16.884 2.62476C15.676 3.93713 14.6404 6.01501 14.9283 8.03821C16.9988 8.20227 19.1276 7.05396 20.3928 5.57751Z" fill-rule="nonzero" fill="#F54748"/>
	<defs/>
</svg>
