<svg width="35.000000" height="35.000000" viewBox="0 0 35 35" fill="none" xmlns="http://www.w3.org/2000/svg" xmlns:xlink="http://www.w3.org/1999/xlink">
	<desc>
			Created with Pixso.
	</desc>
	<g clip-path="url(#clip1_161)">
		<path d="M25.1562 16.4062C23.4257 16.4062 21.7339 16.9194 20.295 17.8809C18.8561 18.8423 17.7346 20.2089 17.0723 21.8077C16.41 23.4066 16.2368 25.166 16.5744 26.8633C16.912 28.5606 17.7454 30.1198 18.9691 31.3434C20.1927 32.5671 21.7519 33.4005 23.4492 33.7381C25.1465 34.0757 26.9059 33.9025 28.5048 33.2402C30.1036 32.5779 31.4702 31.4564 32.4316 30.0175C33.3931 28.5786 33.9062 26.8868 33.9062 25.1562C33.9062 22.8356 32.9844 20.61 31.3434 18.9691C29.7025 17.3281 27.4769 16.4062 25.1562 16.4062ZM29.8047 23.7344L24.6641 29.5312L21.1094 25.9766C20.984 25.8826 20.8803 25.7627 20.8053 25.6251C20.7303 25.4875 20.6857 25.3354 20.6746 25.1791C20.6635 25.0228 20.6862 24.8659 20.7409 24.7191C20.7957 24.5723 20.8814 24.439 20.9922 24.3282C21.103 24.2173 21.2364 24.1317 21.3832 24.0768C21.53 24.022 21.6868 23.9995 21.8431 24.0106C21.9995 24.0217 22.1516 24.0662 22.2892 24.1412C22.4268 24.2162 22.5466 24.3199 22.6406 24.4453L24.5547 26.3594L28.1641 22.3125C28.261 22.2048 28.3782 22.1172 28.509 22.0548C28.6398 21.9924 28.7816 21.9563 28.9264 21.9487C29.0711 21.9411 29.2159 21.962 29.3525 22.0104C29.4892 22.0587 29.6149 22.1335 29.7227 22.2305C29.8304 22.3274 29.918 22.4446 29.9804 22.5754C30.0428 22.7062 30.0789 22.848 30.0865 22.9928C30.0941 23.1375 30.0731 23.2823 30.0248 23.4189C29.9764 23.5555 29.9017 23.6813 29.8047 23.7891L29.8047 23.7344Z" fill-rule="nonzero" fill="#FDC55E"/>
		<path d="M22.0938 1.09375L15.3125 1.09375L15.3125 7.65625L26.4688 7.65625L22.0938 1.09375ZM13.125 1.09375L6.34375 1.09375L1.96875 7.65625L13.125 7.65625L13.125 1.09375ZM25.1562 14.2188C25.8909 14.2184 26.6237 14.2917 27.3438 14.4375L27.3438 9.84375L1.09375 9.84375L1.09375 27.3438L14.4375 27.3438C14.1131 25.7545 14.1462 24.1129 14.5345 22.538C14.9229 20.9631 15.6566 19.4943 16.6826 18.2379C17.7086 16.9816 19.0012 15.9692 20.4668 15.274C21.9323 14.5789 23.5342 14.2184 25.1562 14.2188Z" fill-rule="nonzero" fill="#FDC55E"/>
	</g>
	<defs>
		<clipPath id="clip1_161">
			<rect width="35.000000" height="35.000000" fill="white"/>
		</clipPath>
	</defs>
</svg>
