  <svg
      width={25}
      height={25}
      viewBox="0 0 25 25"
      fill="none"
      xmlns="http://www.w3.org/2000/svg"
      {...props}
    >
      <g clipPath="url(#clip1_242)" fill="#686868">
        <path d="M23.438 10.938h-1.954a8.632 8.632 0 00-6.757-8.399 1.564 1.564 0 00-1.446-.977H11.72a1.565 1.565 0 00-1.446.977 8.633 8.633 0 00-6.757 8.399H1.562a.781.781 0 100 1.562h21.875a.781.781 0 100-1.563zm-18.36 0a7.032 7.032 0 015.43-6.836 1.563 1.563 0 001.21.585h1.563a1.562 1.562 0 001.211-.585 7.03 7.03 0 015.43 6.835H5.078zM17.969 20.313a.781.781 0 01-1.563 0v-6.25h-3.125v6.25a.781.781 0 11-1.562 0v-6.25H8.594v6.25a.781.781 0 11-1.563 0v-6.25h-4.18l1.837 9.374h15.625l1.875-9.375h-4.22v6.25z" />
      </g>
      <defs>
        <clipPath id="clip1_242">
          <path fill="#fff" d="M0 0H25V25H0z" />
        </clipPath>
      </defs>
    </svg>
