<svg width="20.228638" height="19.436035" viewBox="0 0 20.2286 19.436" fill="none" xmlns="http://www.w3.org/2000/svg" xmlns:xlink="http://www.w3.org/1999/xlink">
	<desc>
			Created with Pixso.
	</desc>
	<path d="M7.19565 4.5105C6.92789 5.33472 6.15997 5.89258 5.29352 5.89258L2.00385 5.89258C0.0664062 5.89258 -0.739166 8.37183 0.828278 9.5105L3.48969 11.4443C4.19064 11.9536 4.48398 12.8562 4.21622 13.6804L3.19965 16.8091C2.60095 18.6516 4.7099 20.1838 6.27734 19.0452L8.93875 17.1113C9.63971 16.6021 10.5889 16.6021 11.2899 17.1113L13.9513 19.0452C15.5187 20.1838 17.6277 18.6516 17.029 16.8091L16.0124 13.6804C15.7447 12.8562 16.038 11.9536 16.739 11.4443L19.4004 9.5105C20.9678 8.37183 20.1622 5.89258 18.2248 5.89258L14.9351 5.89258C14.0687 5.89258 13.3008 5.33472 13.033 4.5105L12.0164 1.38184C11.4177 -0.460693 8.81091 -0.460693 8.21222 1.38184L7.19565 4.5105ZM8.62222 4.97412C8.15366 6.41626 6.80981 7.39258 5.29352 7.39258L2.00385 7.39258C1.51947 7.39258 1.31808 8.01245 1.70996 8.29712L4.37137 10.2307C5.59805 11.1221 6.11136 12.7017 5.64282 14.1438L4.62625 17.2725C4.47656 17.7332 5.00381 18.1162 5.39566 17.8315L8.05707 15.8979C9.28378 15.0066 10.9449 15.0066 12.1716 15.8979L14.833 17.8315C15.2248 18.1162 15.7521 17.7332 15.6024 17.2725L14.5858 14.1438C14.1173 12.7017 14.6306 11.1221 15.8573 10.2307L18.5187 8.29712C18.9106 8.01245 18.7092 7.39258 18.2248 7.39258L14.9351 7.39258C13.4188 7.39258 12.075 6.41626 11.6064 4.97412L10.5898 1.84546C10.4402 1.38477 9.78845 1.38477 9.63879 1.84546L8.62222 4.97412Z" fill-rule="evenodd" fill="#FF8A01"/>
	<defs/>
</svg>
